<svg width="24" height="24" viewBox="0 0 24 24" fill="none" xmlns="http://www.w3.org/2000/svg">
<path d="M5.02062 20.0893H8.93548V24H5.02062V20.0893ZM15.0638 20.0893H18.9787V24H15.0638V20.0893ZM-0.000976562 15.068H3.91389V18.9773H-0.000976562V15.068ZM5.02062 15.068H8.93548V18.9773H5.02062V15.068ZM10.0422 15.068H13.9571V18.9773H10.0422V15.068ZM15.0638 15.068H18.9787V18.9773H15.0638V15.068ZM20.0854 15.068H24.0003V18.9773H20.0854V15.068ZM5.02062 10.0453H8.93548V13.9547H5.02062V10.0453ZM15.0638 10.0453H18.9787V13.9547H15.0638V10.0453ZM-0.000976562 5.02267H3.91389V8.932H-0.000976562V5.02267ZM5.02062 5.02267H8.93548V8.932H5.02062V5.02267ZM10.0422 5.02267H13.9571V8.932H10.0422V5.02267ZM15.0638 5.02267H18.9787V8.932H15.0638V5.02267ZM20.0854 5.02267H24.0003V8.932H20.0854V5.02267ZM5.02062 0H8.93548V3.90933H5.02062V0ZM18.9787 0V3.90933H15.0638V0H18.9787Z" fill="black"/>
</svg>
