<svg width="32" height="24" viewBox="0 0 32 24" fill="none" xmlns="http://www.w3.org/2000/svg">
<g clip-path="url(#clip0_694_415)">
<path d="M11.4888 1.91797L2.34801 11.0588C1.84754 11.5593 1.84754 12.3707 2.34801 12.8711L11.4888 22.012" stroke="#1F2421" stroke-width="2.24"/>
<path d="M11.7393 1.09473H8.8561C8.51489 1.09473 8.23828 1.37134 8.23828 1.71255V4.59573C8.23828 4.93694 8.51489 5.21355 8.8561 5.21355H11.7393C12.0805 5.21355 12.3571 4.93694 12.3571 4.59573V1.71255C12.3571 1.37134 12.0805 1.09473 11.7393 1.09473Z" fill="#1F2421"/>
<path d="M3.501 9.9502H0.617824C0.276609 9.9502 0 10.2268 0 10.568V13.4512C0 13.7924 0.276609 14.069 0.617824 14.069H3.501C3.84222 14.069 4.11883 13.7924 4.11883 13.4512V10.568C4.11883 10.2268 3.84222 9.9502 3.501 9.9502Z" fill="#1F2421"/>
<path d="M11.7393 18.8057H8.8561C8.51489 18.8057 8.23828 19.0823 8.23828 19.4235V22.3067C8.23828 22.6479 8.51489 22.9245 8.8561 22.9245H11.7393C12.0805 22.9245 12.3571 22.6479 12.3571 22.3067V19.4235C12.3571 19.0823 12.0805 18.8057 11.7393 18.8057Z" fill="#1F2421"/>
<path d="M21.127 22.0559L30.2677 12.9151C30.7682 12.4146 30.7682 11.6032 30.2677 11.1027L21.127 1.96191" stroke="#1F2421" stroke-width="2.56"/>
</g>
<defs>
<clipPath id="clip0_694_415">
<rect width="32" height="22.0444" fill="white" transform="translate(0 0.977539)"/>
</clipPath>
</defs>
</svg>
