<svg width="24" height="24" viewBox="0 0 24 24" fill="none" xmlns="http://www.w3.org/2000/svg">
<path d="M2.95958 8.73161H6.76402V20.9649H2.95958V8.73161ZM4.85508 2.65527C6.07841 2.65527 7.05977 3.63663 7.05977 4.85996C7.05977 6.06985 6.07841 7.06465 4.85508 7.06465C3.63175 7.06465 2.65039 6.06985 2.65039 4.85996C2.65039 3.63663 3.63175 2.65527 4.85508 2.65527Z" fill="white"/>
<path d="M9.14258 8.73107H12.7857V10.398H12.8395C13.3503 9.43012 14.5871 8.42188 16.4422 8.42188C20.287 8.42188 20.9995 10.9492 20.9995 14.2428V20.951H17.1951V15.0091C17.1951 13.5841 17.1682 11.7692 15.2189 11.7692C13.2428 11.7692 12.9336 13.3152 12.9336 14.915V20.9644H9.14258V8.73107Z" fill="white"/>
</svg>
